<svg width="50" height="50" viewBox="0 0 50 50" fill="none" xmlns="http://www.w3.org/2000/svg">
<circle cx="25" cy="25" r="25" fill="#238DF6"/>
<path d="M6.04616 26.2983V23.8438L17.7053 18.4574V21.483L9.42116 25.0369L9.51491 24.875V25.267L9.42116 25.1051L17.7053 28.6591V31.6847L6.04616 26.2983ZM28.6634 13.7273L23.0384 34.625H20.3366L25.9616 13.7273H28.6634ZM42.9474 26.2983L31.2884 31.6847V28.6591L39.5724 25.1051L39.4787 25.267V24.875L39.5724 25.0369L31.2884 21.483V18.4574L42.9474 23.8438V26.2983Z" fill="#004179"/>
<path opacity="0.68" d="M2.09766 23.6309C2.29297 23.6471 2.46387 23.6569 2.61035 23.6602C2.76009 23.6634 2.88704 23.665 2.99121 23.665C3.11165 23.665 3.21582 23.6618 3.30371 23.6553C3.39486 23.6455 3.51367 23.6325 3.66016 23.6162C3.78385 23.5999 3.94336 23.5788 4.13867 23.5527C4.33398 23.5234 4.57161 23.486 4.85156 23.4404C4.81576 23.4958 4.78483 23.5544 4.75879 23.6162C4.736 23.6748 4.71647 23.7285 4.7002 23.7773C4.68392 23.8359 4.66927 23.8929 4.65625 23.9482C4.64648 24.0101 4.63509 24.0866 4.62207 24.1777C4.60905 24.2559 4.59277 24.3551 4.57324 24.4756C4.55697 24.5928 4.53581 24.7327 4.50977 24.8955C4.41211 24.6416 4.31283 24.4463 4.21191 24.3096C4.11426 24.1729 4.02311 24.0719 3.93848 24.0068C3.84082 23.932 3.74805 23.8896 3.66016 23.8799C3.5332 23.8799 3.42904 23.9043 3.34766 23.9531C3.26628 24.002 3.19954 24.0654 3.14746 24.1436C3.09863 24.2184 3.0612 24.3014 3.03516 24.3926C3.00911 24.4805 2.99121 24.5667 2.98145 24.6514C2.97168 24.7327 2.96517 24.806 2.96191 24.8711C2.95866 24.9329 2.9554 24.9753 2.95215 24.998C3.06608 24.9915 3.16211 24.9834 3.24023 24.9736C3.31836 24.9639 3.38021 24.9541 3.42578 24.9443C3.48112 24.9313 3.52507 24.9183 3.55762 24.9053C3.60645 24.8792 3.65527 24.8483 3.7041 24.8125C3.74642 24.7799 3.79036 24.7409 3.83594 24.6953C3.88477 24.6497 3.92708 24.5944 3.96289 24.5293C3.94336 24.6465 3.92546 24.7441 3.90918 24.8223C3.89616 24.9004 3.88477 24.9622 3.875 25.0078C3.86198 25.0632 3.85384 25.1055 3.85059 25.1348C3.84408 25.1641 3.83594 25.2048 3.82617 25.2568C3.81641 25.3024 3.80501 25.361 3.79199 25.4326C3.77897 25.5042 3.76432 25.5938 3.74805 25.7012C3.70898 25.6328 3.66829 25.5775 3.62598 25.5352C3.58366 25.4896 3.5446 25.4538 3.50879 25.4277C3.46647 25.3984 3.42578 25.3757 3.38672 25.3594C3.3444 25.3464 3.29883 25.3333 3.25 25.3203C3.20768 25.3105 3.15723 25.3008 3.09863 25.291C3.04329 25.278 2.98307 25.2666 2.91797 25.2568C2.92448 25.4326 2.93424 25.584 2.94727 25.7109C2.96029 25.8346 2.97168 25.9388 2.98145 26.0234C2.99447 26.1211 3.00749 26.2025 3.02051 26.2676C3.03678 26.3327 3.06283 26.4027 3.09863 26.4775C3.12793 26.5426 3.16862 26.6175 3.2207 26.7021C3.27604 26.7835 3.34603 26.8714 3.43066 26.9658C3.36556 26.9495 3.2972 26.9382 3.22559 26.9316C3.15397 26.9251 3.09049 26.9202 3.03516 26.917C2.9668 26.9137 2.90169 26.9137 2.83984 26.917C2.77474 26.9202 2.70312 26.9268 2.625 26.9365C2.5599 26.943 2.48503 26.9528 2.40039 26.9658C2.31576 26.9788 2.22624 26.9935 2.13184 27.0098C2.18717 26.9544 2.23275 26.8991 2.26855 26.8438C2.30436 26.7884 2.3304 26.7396 2.34668 26.6973C2.36621 26.6484 2.37923 26.6012 2.38574 26.5557C2.389 26.5166 2.39062 26.432 2.39062 26.3018C2.39062 26.1683 2.389 26.0137 2.38574 25.8379C2.38249 25.6589 2.3776 25.4701 2.37109 25.2715C2.36458 25.0729 2.35807 24.8874 2.35156 24.7148C2.34505 24.5391 2.33691 24.3893 2.32715 24.2656C2.32064 24.1419 2.3125 24.0671 2.30273 24.041C2.28971 24.0085 2.27507 23.971 2.25879 23.9287C2.23275 23.8604 2.17904 23.7611 2.09766 23.6309ZM4.60254 24.6611C4.66439 24.6644 4.71973 24.666 4.76855 24.666C4.82064 24.6628 4.86458 24.6595 4.90039 24.6562C4.94271 24.653 4.98014 24.6497 5.0127 24.6465C5.06152 24.64 5.11198 24.6318 5.16406 24.6221C5.20964 24.6156 5.25684 24.6074 5.30566 24.5977C5.35775 24.5846 5.4082 24.57 5.45703 24.5537C5.4375 24.6025 5.42122 24.6449 5.4082 24.6807C5.39518 24.7165 5.38542 24.7474 5.37891 24.7734C5.36914 24.8027 5.36426 24.8271 5.36426 24.8467C5.361 24.8695 5.35938 24.8971 5.35938 24.9297C5.35612 24.985 5.35612 25.0745 5.35938 25.1982C5.52865 25.0518 5.67025 24.9378 5.78418 24.8564C5.90137 24.7751 5.99414 24.7116 6.0625 24.666C6.14388 24.6139 6.20736 24.5798 6.25293 24.5635C6.37337 24.5439 6.47917 24.5716 6.57031 24.6465C6.60938 24.679 6.64681 24.723 6.68262 24.7783C6.71842 24.8304 6.74935 24.9004 6.77539 24.9883C6.80143 25.0762 6.82096 25.182 6.83398 25.3057C6.84701 25.4261 6.84863 25.571 6.83887 25.7402C6.77051 25.7467 6.70866 25.7533 6.65332 25.7598C6.60124 25.7663 6.55729 25.7712 6.52148 25.7744C6.47917 25.7809 6.4401 25.7842 6.4043 25.7842L6.27246 25.7988C6.22689 25.8053 6.16992 25.8118 6.10156 25.8184C6.03646 25.8216 5.95671 25.8281 5.8623 25.8379C5.99902 25.7272 6.08691 25.6312 6.12598 25.5498C6.16829 25.4652 6.1862 25.3952 6.17969 25.3398C6.17318 25.278 6.14388 25.2243 6.0918 25.1787C6.02995 25.1429 5.96322 25.1299 5.8916 25.1396C5.82975 25.1462 5.75814 25.1738 5.67676 25.2227C5.59538 25.2715 5.50911 25.3626 5.41797 25.4961C5.42448 25.7044 5.43099 25.877 5.4375 26.0137C5.44727 26.1504 5.4554 26.2611 5.46191 26.3457C5.47168 26.4434 5.47982 26.5199 5.48633 26.5752C5.49609 26.624 5.51562 26.6761 5.54492 26.7314C5.56771 26.777 5.60026 26.8275 5.64258 26.8828C5.6849 26.9382 5.74023 26.9935 5.80859 27.0488C5.66536 27.0423 5.54818 27.0423 5.45703 27.0488C5.40169 27.0521 5.35286 27.0553 5.31055 27.0586C5.26497 27.0651 5.21615 27.0716 5.16406 27.0781C5.11849 27.0846 5.06478 27.0911 5.00293 27.0977C4.94434 27.1074 4.87923 27.1172 4.80762 27.127C4.83366 27.0911 4.85482 27.0488 4.87109 27C4.88737 26.9544 4.90039 26.9105 4.91016 26.8682C4.92318 26.8193 4.93294 26.7689 4.93945 26.7168C4.94271 26.6712 4.94434 26.6029 4.94434 26.5117C4.94759 26.4206 4.94596 26.318 4.93945 26.2041C4.9362 26.0869 4.93132 25.9665 4.9248 25.8428C4.91829 25.7158 4.91016 25.597 4.90039 25.4863C4.89062 25.3757 4.87923 25.2796 4.86621 25.1982C4.85645 25.1136 4.84505 25.055 4.83203 25.0225C4.81576 24.9834 4.79622 24.9443 4.77344 24.9053C4.75391 24.8695 4.72949 24.832 4.7002 24.793C4.6709 24.7507 4.63835 24.7067 4.60254 24.6611ZM8.35254 24.8125C8.43717 24.8125 8.52507 24.8288 8.61621 24.8613C8.70736 24.8906 8.79525 24.9297 8.87988 24.9785C8.96452 25.0241 9.04102 25.0745 9.10938 25.1299C9.18099 25.182 9.23958 25.2324 9.28516 25.2812C9.36654 25.3691 9.42188 25.488 9.45117 25.6377C9.48372 25.7842 9.49023 25.9355 9.4707 26.0918C9.45117 26.2448 9.4056 26.3896 9.33398 26.5264C9.26237 26.6631 9.16309 26.764 9.03613 26.8291C8.94499 26.8747 8.85547 26.9105 8.76758 26.9365C8.67969 26.9626 8.59505 26.9821 8.51367 26.9951C8.43229 27.0081 8.35579 27.0146 8.28418 27.0146C8.21257 27.0146 8.15072 27.013 8.09863 27.0098C8.00098 27.0033 7.89844 26.9691 7.79102 26.9072C7.68685 26.8454 7.58757 26.7689 7.49316 26.6777C7.40202 26.5866 7.32389 26.4873 7.25879 26.3799C7.19368 26.2692 7.15462 26.165 7.1416 26.0674C7.12207 25.9339 7.11882 25.7939 7.13184 25.6475C7.14486 25.501 7.19206 25.3659 7.27344 25.2422C7.35807 25.1185 7.48503 25.016 7.6543 24.9346C7.82682 24.8532 8.05957 24.8125 8.35254 24.8125ZM8.19141 26.707C8.22721 26.7135 8.27604 26.7054 8.33789 26.6826C8.39974 26.6566 8.45996 26.6159 8.51855 26.5605C8.5804 26.5052 8.63411 26.4352 8.67969 26.3506C8.72852 26.2627 8.75781 26.1569 8.76758 26.0332C8.77734 25.9128 8.77734 25.8021 8.76758 25.7012C8.76107 25.6003 8.74642 25.5124 8.72363 25.4375C8.70085 25.3594 8.6748 25.2959 8.64551 25.2471C8.61621 25.1982 8.58529 25.1641 8.55273 25.1445C8.4974 25.1152 8.43066 25.0924 8.35254 25.0762C8.27441 25.0566 8.20768 25.0599 8.15234 25.0859C8.1263 25.099 8.09375 25.1266 8.05469 25.1689C8.01562 25.2113 7.97656 25.265 7.9375 25.3301C7.89844 25.3919 7.86263 25.4635 7.83008 25.5449C7.80078 25.6263 7.77962 25.7109 7.7666 25.7988C7.75358 25.8867 7.75033 25.9811 7.75684 26.082C7.7666 26.1829 7.78776 26.279 7.82031 26.3701C7.85286 26.458 7.89844 26.5345 7.95703 26.5996C8.01888 26.6615 8.09701 26.6973 8.19141 26.707ZM9.85645 26.4629C9.87923 26.3555 9.89551 26.2611 9.90527 26.1797C9.91829 26.0951 9.92806 26.0251 9.93457 25.9697C9.94108 25.9046 9.94434 25.8493 9.94434 25.8037C9.94108 25.7484 9.93783 25.6833 9.93457 25.6084C9.93457 25.5303 9.93132 25.4538 9.9248 25.3789C9.92155 25.3008 9.91667 25.2324 9.91016 25.1738C9.90365 25.112 9.89551 25.068 9.88574 25.042C9.87272 25.016 9.85482 24.9883 9.83203 24.959C9.78646 24.9036 9.71973 24.8499 9.63184 24.7979C9.70671 24.7816 9.77018 24.7686 9.82227 24.7588C9.8776 24.7458 9.92318 24.7344 9.95898 24.7246C9.99805 24.7116 10.0322 24.7002 10.0615 24.6904C10.0876 24.6807 10.1185 24.6709 10.1543 24.6611C10.1836 24.6546 10.2194 24.6465 10.2617 24.6367C10.304 24.627 10.3529 24.6156 10.4082 24.6025L10.3936 25.0469C10.4977 24.9232 10.6035 24.8304 10.7109 24.7686C10.8184 24.7067 10.9193 24.6628 11.0137 24.6367C11.1211 24.6042 11.2269 24.5879 11.3311 24.5879C11.4613 24.5944 11.5817 24.6156 11.6924 24.6514C11.8063 24.6872 11.904 24.7295 11.9854 24.7783C12.07 24.8239 12.1383 24.8727 12.1904 24.9248C12.2425 24.9769 12.2734 25.0225 12.2832 25.0615C12.3223 25.1885 12.332 25.3057 12.3125 25.4131C12.293 25.5173 12.2669 25.6198 12.2344 25.7207C12.2051 25.8184 12.179 25.916 12.1562 26.0137C12.1367 26.1113 12.1449 26.2171 12.1807 26.3311C12.1937 26.3604 12.2067 26.3896 12.2197 26.4189C12.2327 26.445 12.249 26.471 12.2686 26.4971C12.2881 26.5231 12.3109 26.5443 12.3369 26.5605C12.3011 26.5573 12.2653 26.5557 12.2295 26.5557C12.1937 26.5524 12.1611 26.5492 12.1318 26.5459C12.096 26.5426 12.0635 26.5394 12.0342 26.5361C12.0016 26.5329 11.9577 26.5312 11.9023 26.5312C11.8079 26.5312 11.6615 26.5361 11.4629 26.5459C11.4922 26.4775 11.515 26.4206 11.5312 26.375C11.5508 26.3262 11.5671 26.2871 11.5801 26.2578C11.5931 26.222 11.6029 26.1943 11.6094 26.1748C11.6484 26.0804 11.6712 25.973 11.6777 25.8525C11.6875 25.7321 11.6794 25.61 11.6533 25.4863C11.6436 25.444 11.6273 25.3936 11.6045 25.335C11.5817 25.2764 11.5508 25.2194 11.5117 25.1641C11.4759 25.1087 11.432 25.0615 11.3799 25.0225C11.3311 24.9834 11.2741 24.9606 11.209 24.9541C11.1439 24.9476 11.0706 24.9639 10.9893 25.0029C10.9111 25.042 10.8265 25.1136 10.7354 25.2178C10.667 25.3057 10.6133 25.4131 10.5742 25.54C10.5384 25.6475 10.514 25.7826 10.501 25.9453C10.488 26.1048 10.5075 26.292 10.5596 26.5068C10.514 26.5003 10.4717 26.4971 10.4326 26.4971C10.3936 26.4938 10.361 26.4906 10.335 26.4873C10.3024 26.484 10.2731 26.4808 10.2471 26.4775C10.2178 26.4775 10.1852 26.4759 10.1494 26.4727C10.1169 26.4727 10.0762 26.4727 10.0273 26.4727C9.97852 26.4694 9.92155 26.4661 9.85645 26.4629ZM12.5762 23.9238C12.6738 23.9336 12.7552 23.9417 12.8203 23.9482C12.8887 23.9548 12.944 23.9596 12.9863 23.9629C13.0352 23.9661 13.0742 23.9678 13.1035 23.9678C13.1328 23.971 13.1719 23.971 13.2207 23.9678C13.263 23.9645 13.3184 23.9613 13.3867 23.958C13.4551 23.9515 13.5413 23.9417 13.6455 23.9287C13.6227 23.9613 13.6048 23.9906 13.5918 24.0166C13.5788 24.0394 13.5674 24.0605 13.5576 24.0801L13.5283 24.1387C13.5218 24.1582 13.5153 24.1777 13.5088 24.1973C13.5023 24.2135 13.4958 24.2331 13.4893 24.2559C13.486 24.2786 13.4827 24.3031 13.4795 24.3291H14.2314L14.1631 24.7246L13.4746 24.6855C13.4583 24.8516 13.4469 24.9801 13.4404 25.0713C13.4339 25.1624 13.4274 25.2292 13.4209 25.2715L13.4111 25.3594C13.4014 25.4831 13.3916 25.6182 13.3818 25.7646C13.3721 25.9079 13.3688 26.0413 13.3721 26.165C13.3753 26.2887 13.3867 26.3929 13.4062 26.4775C13.4258 26.5589 13.46 26.5996 13.5088 26.5996C13.5576 26.5996 13.6032 26.5866 13.6455 26.5605C13.6878 26.5345 13.7236 26.5036 13.7529 26.4678C13.7855 26.432 13.8099 26.3962 13.8262 26.3604C13.8424 26.3213 13.8506 26.292 13.8506 26.2725C13.8506 26.2529 13.8457 26.2301 13.8359 26.2041C13.8197 26.1553 13.7904 26.0934 13.748 26.0186C13.8424 26.0413 13.9255 26.0641 13.9971 26.0869C14.0329 26.0999 14.0654 26.113 14.0947 26.126C14.1273 26.139 14.1647 26.1536 14.207 26.1699C14.2428 26.1862 14.2884 26.2057 14.3438 26.2285C14.3991 26.2513 14.4642 26.279 14.5391 26.3115C14.4674 26.3245 14.4154 26.3457 14.3828 26.375C14.3633 26.388 14.3486 26.4027 14.3389 26.4189C14.3161 26.4548 14.29 26.5036 14.2607 26.5654C14.2314 26.624 14.1875 26.6826 14.1289 26.7412C14.0703 26.7998 13.9906 26.8519 13.8896 26.8975C13.792 26.943 13.6602 26.9691 13.4941 26.9756C13.3216 26.9821 13.1898 26.9528 13.0986 26.8877C13.0107 26.8226 12.9456 26.7477 12.9033 26.6631C12.8643 26.5752 12.8415 26.4889 12.835 26.4043C12.8285 26.3197 12.8236 26.2627 12.8203 26.2334C12.8171 26.2041 12.8171 26.1309 12.8203 26.0137C12.8236 25.8965 12.8285 25.7679 12.835 25.6279C12.8415 25.4847 12.848 25.348 12.8545 25.2178C12.861 25.0843 12.8643 24.9867 12.8643 24.9248C12.8643 24.8923 12.8659 24.8581 12.8691 24.8223C12.8691 24.793 12.8691 24.762 12.8691 24.7295C12.8724 24.6937 12.874 24.6595 12.874 24.627L12.166 24.6221L12.1367 24.3438L12.8496 24.3633C12.8431 24.3275 12.835 24.2949 12.8252 24.2656C12.8187 24.2331 12.8122 24.207 12.8057 24.1875C12.7959 24.1647 12.7861 24.1452 12.7764 24.1289C12.7633 24.1126 12.7487 24.0947 12.7324 24.0752C12.7161 24.0589 12.695 24.0378 12.6689 24.0117C12.6429 23.9857 12.612 23.9564 12.5762 23.9238ZM15.6084 26.2139C15.6995 26.2139 15.7842 26.2041 15.8623 26.1846C15.9274 26.1683 15.9893 26.1423 16.0479 26.1064C16.1097 26.0674 16.1504 26.0104 16.1699 25.9355C16.235 25.9486 16.2904 25.96 16.3359 25.9697C16.3815 25.9762 16.4206 25.9827 16.4531 25.9893C16.4889 25.999 16.5199 26.0055 16.5459 26.0088C16.5719 26.0153 16.6029 26.0218 16.6387 26.0283C16.6712 26.0348 16.7103 26.043 16.7559 26.0527C16.8047 26.0592 16.8617 26.069 16.9268 26.082C16.8779 26.0755 16.8275 26.0804 16.7754 26.0967C16.7266 26.113 16.6794 26.1309 16.6338 26.1504C16.5817 26.1732 16.5329 26.2008 16.4873 26.2334C16.458 26.2529 16.4238 26.2822 16.3848 26.3213C16.349 26.3604 16.2969 26.3978 16.2285 26.4336C16.1602 26.4694 16.069 26.5003 15.9551 26.5264C15.8444 26.5492 15.7012 26.5573 15.5254 26.5508C15.3138 26.5443 15.1364 26.5068 14.9932 26.4385C14.8499 26.3669 14.7344 26.2806 14.6465 26.1797C14.5586 26.0755 14.4951 25.9632 14.4561 25.8428C14.417 25.7223 14.3958 25.61 14.3926 25.5059C14.3893 25.4017 14.4202 25.2926 14.4854 25.1787C14.5505 25.0648 14.6416 24.9606 14.7588 24.8662C14.8792 24.7718 15.0241 24.6953 15.1934 24.6367C15.3626 24.5749 15.5482 24.5439 15.75 24.5439C15.8672 24.5439 15.9746 24.5586 16.0723 24.5879C16.1732 24.6139 16.2643 24.6497 16.3457 24.6953C16.4303 24.7409 16.5036 24.793 16.5654 24.8516C16.6273 24.9069 16.6794 24.9639 16.7217 25.0225C16.764 25.0843 16.7998 25.1494 16.8291 25.2178C16.8551 25.2764 16.8763 25.3431 16.8926 25.418C16.9089 25.4928 16.9137 25.5693 16.9072 25.6475C16.6598 25.654 16.4596 25.6589 16.3066 25.6621C16.1569 25.6654 16.0397 25.667 15.9551 25.667H15.7354H15.5693C15.5107 25.667 15.4342 25.6686 15.3398 25.6719C15.2454 25.6751 15.1299 25.68 14.9932 25.6865C15.0094 25.8167 15.0501 25.9176 15.1152 25.9893C15.1836 26.0576 15.2552 26.1097 15.3301 26.1455C15.4147 26.1846 15.5075 26.2074 15.6084 26.2139ZM15.1689 25.335C15.2731 25.3415 15.3594 25.3464 15.4277 25.3496C15.4993 25.3529 15.5579 25.3561 15.6035 25.3594C15.6523 25.3626 15.6914 25.3643 15.7207 25.3643H15.8428C15.9242 25.3643 16.0755 25.3594 16.2969 25.3496C16.2871 25.2064 16.2562 25.0973 16.2041 25.0225C16.1553 24.9476 16.1032 24.8923 16.0479 24.8564C15.9827 24.8174 15.9111 24.7946 15.833 24.7881C15.6214 24.7913 15.4635 24.8353 15.3594 24.9199C15.2585 25.0046 15.195 25.1429 15.1689 25.335ZM17.2539 26.4629C17.2767 26.3555 17.293 26.2611 17.3027 26.1797C17.3158 26.0951 17.3255 26.0251 17.332 25.9697C17.3385 25.9046 17.3418 25.8493 17.3418 25.8037C17.3385 25.7484 17.3353 25.6833 17.332 25.6084C17.332 25.5303 17.3288 25.4538 17.3223 25.3789C17.319 25.3008 17.3141 25.2324 17.3076 25.1738C17.3011 25.112 17.293 25.068 17.2832 25.042C17.2702 25.016 17.2523 24.9883 17.2295 24.959C17.1839 24.9036 17.1172 24.8499 17.0293 24.7979C17.1042 24.7816 17.1676 24.7686 17.2197 24.7588C17.2751 24.7458 17.3206 24.7344 17.3564 24.7246C17.3955 24.7116 17.4297 24.7002 17.459 24.6904C17.485 24.6807 17.516 24.6709 17.5518 24.6611C17.5811 24.6546 17.6169 24.6465 17.6592 24.6367C17.7015 24.627 17.7503 24.6156 17.8057 24.6025L17.791 25.0469C17.8952 24.9232 18.001 24.8304 18.1084 24.7686C18.2158 24.7067 18.3167 24.6628 18.4111 24.6367C18.5186 24.6042 18.6243 24.5879 18.7285 24.5879C18.8587 24.5944 18.9792 24.6156 19.0898 24.6514C19.2038 24.6872 19.3014 24.7295 19.3828 24.7783C19.4674 24.8239 19.5358 24.8727 19.5879 24.9248C19.64 24.9769 19.6709 25.0225 19.6807 25.0615C19.7197 25.1885 19.7295 25.3057 19.71 25.4131C19.6904 25.5173 19.6644 25.6198 19.6318 25.7207C19.6025 25.8184 19.5765 25.916 19.5537 26.0137C19.5342 26.1113 19.5423 26.2171 19.5781 26.3311C19.5911 26.3604 19.6042 26.3896 19.6172 26.4189C19.6302 26.445 19.6465 26.471 19.666 26.4971C19.6855 26.5231 19.7083 26.5443 19.7344 26.5605C19.6986 26.5573 19.6628 26.5557 19.627 26.5557C19.5911 26.5524 19.5586 26.5492 19.5293 26.5459C19.4935 26.5426 19.4609 26.5394 19.4316 26.5361C19.3991 26.5329 19.3551 26.5312 19.2998 26.5312C19.2054 26.5312 19.0589 26.5361 18.8604 26.5459C18.8896 26.4775 18.9124 26.4206 18.9287 26.375C18.9482 26.3262 18.9645 26.2871 18.9775 26.2578C18.9906 26.222 19.0003 26.1943 19.0068 26.1748C19.0459 26.0804 19.0687 25.973 19.0752 25.8525C19.085 25.7321 19.0768 25.61 19.0508 25.4863C19.041 25.444 19.0247 25.3936 19.002 25.335C18.9792 25.2764 18.9482 25.2194 18.9092 25.1641C18.8734 25.1087 18.8294 25.0615 18.7773 25.0225C18.7285 24.9834 18.6715 24.9606 18.6064 24.9541C18.5413 24.9476 18.4681 24.9639 18.3867 25.0029C18.3086 25.042 18.224 25.1136 18.1328 25.2178C18.0645 25.3057 18.0107 25.4131 17.9717 25.54C17.9359 25.6475 17.9115 25.7826 17.8984 25.9453C17.8854 26.1048 17.9049 26.292 17.957 26.5068C17.9115 26.5003 17.8691 26.4971 17.8301 26.4971C17.791 26.4938 17.7585 26.4906 17.7324 26.4873C17.6999 26.484 17.6706 26.4808 17.6445 26.4775C17.6152 26.4775 17.5827 26.4759 17.5469 26.4727C17.5143 26.4727 17.4736 26.4727 17.4248 26.4727C17.376 26.4694 17.319 26.4661 17.2539 26.4629ZM22.3809 23.2598C22.4427 23.263 22.5094 23.2646 22.5811 23.2646C22.6429 23.2646 22.7129 23.2663 22.791 23.2695C22.8724 23.2695 22.957 23.2663 23.0449 23.2598C22.9668 23.2956 22.8984 23.3477 22.8398 23.416C22.7812 23.4844 22.734 23.5527 22.6982 23.6211C22.6527 23.7025 22.6152 23.7871 22.5859 23.875C22.5697 23.9271 22.5566 24.0199 22.5469 24.1533C22.5371 24.2835 22.529 24.4365 22.5225 24.6123C22.5192 24.7881 22.5176 24.9736 22.5176 25.1689C22.5176 25.3643 22.5192 25.5514 22.5225 25.7305C22.5257 25.9062 22.5306 26.0625 22.5371 26.1992C22.5436 26.3359 22.5518 26.432 22.5615 26.4873C22.5745 26.5524 22.5908 26.6143 22.6104 26.6729C22.6266 26.7249 22.6478 26.7786 22.6738 26.834C22.6999 26.8861 22.7324 26.9284 22.7715 26.9609L22.2734 27.1855C22.2474 27.1497 22.2262 27.1123 22.21 27.0732C22.1937 27.0374 22.1807 27.0049 22.1709 26.9756C22.1579 26.9398 22.1497 26.9072 22.1465 26.8779C22.14 26.8389 22.1335 26.7965 22.127 26.751C22.1204 26.7021 22.1123 26.6566 22.1025 26.6143C22.096 26.5687 22.0911 26.5312 22.0879 26.502C22.0846 26.4727 22.0846 26.4548 22.0879 26.4482C22.0911 26.4417 22.0716 26.471 22.0293 26.5361C21.987 26.598 21.9235 26.6712 21.8389 26.7559C21.7575 26.8372 21.6566 26.917 21.5361 26.9951C21.4157 27.07 21.2806 27.1172 21.1309 27.1367C20.9779 27.1562 20.8363 27.127 20.7061 27.0488C20.5791 26.9707 20.4701 26.8617 20.3789 26.7217C20.2878 26.5785 20.2178 26.4141 20.1689 26.2285C20.1234 26.0397 20.1055 25.8477 20.1152 25.6523C20.1217 25.5221 20.151 25.4066 20.2031 25.3057C20.2552 25.2015 20.3203 25.112 20.3984 25.0371C20.4798 24.959 20.5677 24.8939 20.6621 24.8418C20.7598 24.7865 20.8542 24.7409 20.9453 24.7051C21.0397 24.6693 21.1276 24.6432 21.209 24.627C21.2904 24.6107 21.3555 24.5993 21.4043 24.5928C21.4629 24.5895 21.5296 24.5993 21.6045 24.6221C21.6696 24.6416 21.7445 24.6742 21.8291 24.7197C21.917 24.7653 22.0146 24.8337 22.1221 24.9248C22.1025 24.5993 22.0846 24.3389 22.0684 24.1436C22.0521 23.945 22.0358 23.7936 22.0195 23.6895C22.0033 23.5658 21.9886 23.4811 21.9756 23.4355C21.9593 23.403 21.9382 23.3704 21.9121 23.3379C21.8893 23.3118 21.86 23.2858 21.8242 23.2598C21.7917 23.2305 21.7526 23.2077 21.707 23.1914C21.7917 23.2077 21.873 23.2191 21.9512 23.2256C22.0293 23.2321 22.1009 23.2386 22.166 23.2451C22.2409 23.2516 22.3125 23.2565 22.3809 23.2598ZM21.1553 25.0811C21.0934 25.1038 21.043 25.1429 21.0039 25.1982C20.9681 25.2536 20.9388 25.3203 20.916 25.3984C20.8932 25.4733 20.877 25.5547 20.8672 25.6426C20.8607 25.7272 20.8558 25.8102 20.8525 25.8916C20.8525 25.9697 20.8525 26.0413 20.8525 26.1064C20.8525 26.1715 20.8525 26.2204 20.8525 26.2529C20.8525 26.2725 20.8558 26.3083 20.8623 26.3604C20.8721 26.4092 20.8916 26.4613 20.9209 26.5166C20.9502 26.5687 20.9909 26.6159 21.043 26.6582C21.0983 26.7005 21.1715 26.7217 21.2627 26.7217C21.3376 26.7152 21.4173 26.6891 21.502 26.6436C21.5768 26.6045 21.6615 26.5426 21.7559 26.458C21.8535 26.3701 21.9577 26.2448 22.0684 26.082C22.0618 25.9779 22.057 25.8916 22.0537 25.8232C22.0537 25.7549 22.0521 25.6995 22.0488 25.6572C22.0456 25.6084 22.0439 25.5693 22.0439 25.54V25.4668C22.0439 25.4473 22.0439 25.4261 22.0439 25.4033C22.0439 25.3805 22.0456 25.3594 22.0488 25.3398C21.9577 25.2747 21.8763 25.2194 21.8047 25.1738C21.7363 25.125 21.668 25.0892 21.5996 25.0664C21.5345 25.0404 21.4661 25.029 21.3945 25.0322C21.3262 25.0322 21.2464 25.0485 21.1553 25.0811ZM26.9414 23.2598C27.0033 23.263 27.07 23.2646 27.1416 23.2646C27.2035 23.2646 27.2734 23.2663 27.3516 23.2695C27.4329 23.2695 27.5176 23.2663 27.6055 23.2598C27.5273 23.2956 27.459 23.3477 27.4004 23.416C27.3418 23.4844 27.2946 23.5527 27.2588 23.6211C27.2132 23.7025 27.1758 23.7871 27.1465 23.875C27.1302 23.9271 27.1172 24.0199 27.1074 24.1533C27.0977 24.2835 27.0895 24.4365 27.083 24.6123C27.0798 24.7881 27.0781 24.9736 27.0781 25.1689C27.0781 25.3643 27.0798 25.5514 27.083 25.7305C27.0863 25.9062 27.0911 26.0625 27.0977 26.1992C27.1042 26.3359 27.1123 26.432 27.1221 26.4873C27.1351 26.5524 27.1514 26.6143 27.1709 26.6729C27.1872 26.7249 27.2083 26.7786 27.2344 26.834C27.2604 26.8861 27.293 26.9284 27.332 26.9609L26.834 27.1855C26.8079 27.1497 26.7868 27.1123 26.7705 27.0732C26.7542 27.0374 26.7412 27.0049 26.7314 26.9756C26.7184 26.9398 26.7103 26.9072 26.707 26.8779C26.7005 26.8389 26.694 26.7965 26.6875 26.751C26.681 26.7021 26.6729 26.6566 26.6631 26.6143C26.6566 26.5687 26.6517 26.5312 26.6484 26.502C26.6452 26.4727 26.6452 26.4548 26.6484 26.4482C26.6517 26.4417 26.6322 26.471 26.5898 26.5361C26.5475 26.598 26.484 26.6712 26.3994 26.7559C26.318 26.8372 26.2171 26.917 26.0967 26.9951C25.9762 27.07 25.8411 27.1172 25.6914 27.1367C25.5384 27.1562 25.3968 27.127 25.2666 27.0488C25.1396 26.9707 25.0306 26.8617 24.9395 26.7217C24.8483 26.5785 24.7783 26.4141 24.7295 26.2285C24.6839 26.0397 24.666 25.8477 24.6758 25.6523C24.6823 25.5221 24.7116 25.4066 24.7637 25.3057C24.8158 25.2015 24.8809 25.112 24.959 25.0371C25.0404 24.959 25.1283 24.8939 25.2227 24.8418C25.3203 24.7865 25.4147 24.7409 25.5059 24.7051C25.6003 24.6693 25.6882 24.6432 25.7695 24.627C25.8509 24.6107 25.916 24.5993 25.9648 24.5928C26.0234 24.5895 26.0902 24.5993 26.165 24.6221C26.2301 24.6416 26.305 24.6742 26.3896 24.7197C26.4775 24.7653 26.5752 24.8337 26.6826 24.9248C26.6631 24.5993 26.6452 24.3389 26.6289 24.1436C26.6126 23.945 26.5964 23.7936 26.5801 23.6895C26.5638 23.5658 26.5492 23.4811 26.5361 23.4355C26.5199 23.403 26.4987 23.3704 26.4727 23.3379C26.4499 23.3118 26.4206 23.2858 26.3848 23.2598C26.3522 23.2305 26.3132 23.2077 26.2676 23.1914C26.3522 23.2077 26.4336 23.2191 26.5117 23.2256C26.5898 23.2321 26.6615 23.2386 26.7266 23.2451C26.8014 23.2516 26.873 23.2565 26.9414 23.2598ZM25.7158 25.0811C25.654 25.1038 25.6035 25.1429 25.5645 25.1982C25.5286 25.2536 25.4993 25.3203 25.4766 25.3984C25.4538 25.4733 25.4375 25.5547 25.4277 25.6426C25.4212 25.7272 25.4163 25.8102 25.4131 25.8916C25.4131 25.9697 25.4131 26.0413 25.4131 26.1064C25.4131 26.1715 25.4131 26.2204 25.4131 26.2529C25.4131 26.2725 25.4163 26.3083 25.4229 26.3604C25.4326 26.4092 25.4521 26.4613 25.4814 26.5166C25.5107 26.5687 25.5514 26.6159 25.6035 26.6582C25.6589 26.7005 25.7321 26.7217 25.8232 26.7217C25.8981 26.7152 25.9779 26.6891 26.0625 26.6436C26.1374 26.6045 26.222 26.5426 26.3164 26.458C26.4141 26.3701 26.5182 26.2448 26.6289 26.082C26.6224 25.9779 26.6175 25.8916 26.6143 25.8232C26.6143 25.7549 26.6126 25.6995 26.6094 25.6572C26.6061 25.6084 26.6045 25.5693 26.6045 25.54V25.4668C26.6045 25.4473 26.6045 25.4261 26.6045 25.4033C26.6045 25.3805 26.6061 25.3594 26.6094 25.3398C26.5182 25.2747 26.4368 25.2194 26.3652 25.1738C26.2969 25.125 26.2285 25.0892 26.1602 25.0664C26.0951 25.0404 26.0267 25.029 25.9551 25.0322C25.8867 25.0322 25.807 25.0485 25.7158 25.0811ZM28.7725 26.2139C28.8636 26.2139 28.9482 26.2041 29.0264 26.1846C29.0915 26.1683 29.1533 26.1423 29.2119 26.1064C29.2738 26.0674 29.3145 26.0104 29.334 25.9355C29.3991 25.9486 29.4544 25.96 29.5 25.9697C29.5456 25.9762 29.5846 25.9827 29.6172 25.9893C29.653 25.999 29.6839 26.0055 29.71 26.0088C29.736 26.0153 29.7669 26.0218 29.8027 26.0283C29.8353 26.0348 29.8743 26.043 29.9199 26.0527C29.9688 26.0592 30.0257 26.069 30.0908 26.082C30.042 26.0755 29.9915 26.0804 29.9395 26.0967C29.8906 26.113 29.8434 26.1309 29.7979 26.1504C29.7458 26.1732 29.6969 26.2008 29.6514 26.2334C29.6221 26.2529 29.5879 26.2822 29.5488 26.3213C29.513 26.3604 29.4609 26.3978 29.3926 26.4336C29.3242 26.4694 29.2331 26.5003 29.1191 26.5264C29.0085 26.5492 28.8652 26.5573 28.6895 26.5508C28.4779 26.5443 28.3005 26.5068 28.1572 26.4385C28.014 26.3669 27.8984 26.2806 27.8105 26.1797C27.7227 26.0755 27.6592 25.9632 27.6201 25.8428C27.5811 25.7223 27.5599 25.61 27.5566 25.5059C27.5534 25.4017 27.5843 25.2926 27.6494 25.1787C27.7145 25.0648 27.8057 24.9606 27.9229 24.8662C28.0433 24.7718 28.1882 24.6953 28.3574 24.6367C28.5267 24.5749 28.7122 24.5439 28.9141 24.5439C29.0312 24.5439 29.1387 24.5586 29.2363 24.5879C29.3372 24.6139 29.4284 24.6497 29.5098 24.6953C29.5944 24.7409 29.6676 24.793 29.7295 24.8516C29.7913 24.9069 29.8434 24.9639 29.8857 25.0225C29.9281 25.0843 29.9639 25.1494 29.9932 25.2178C30.0192 25.2764 30.0404 25.3431 30.0566 25.418C30.0729 25.4928 30.0778 25.5693 30.0713 25.6475C29.8239 25.654 29.6237 25.6589 29.4707 25.6621C29.321 25.6654 29.2038 25.667 29.1191 25.667H28.8994H28.7334C28.6748 25.667 28.5983 25.6686 28.5039 25.6719C28.4095 25.6751 28.2939 25.68 28.1572 25.6865C28.1735 25.8167 28.2142 25.9176 28.2793 25.9893C28.3477 26.0576 28.4193 26.1097 28.4941 26.1455C28.5788 26.1846 28.6715 26.2074 28.7725 26.2139ZM28.333 25.335C28.4372 25.3415 28.5234 25.3464 28.5918 25.3496C28.6634 25.3529 28.722 25.3561 28.7676 25.3594C28.8164 25.3626 28.8555 25.3643 28.8848 25.3643H29.0068C29.0882 25.3643 29.2396 25.3594 29.4609 25.3496C29.4512 25.2064 29.4202 25.0973 29.3682 25.0225C29.3193 24.9476 29.2673 24.8923 29.2119 24.8564C29.1468 24.8174 29.0752 24.7946 28.9971 24.7881C28.7855 24.7913 28.6276 24.8353 28.5234 24.9199C28.4225 25.0046 28.359 25.1429 28.333 25.335ZM29.9443 24.3096C29.9997 24.3193 30.0566 24.3275 30.1152 24.334C30.1706 24.3372 30.221 24.3405 30.2666 24.3438C30.3187 24.347 30.3691 24.3486 30.418 24.3486C30.4668 24.3486 30.5221 24.347 30.584 24.3438C30.6361 24.3405 30.6979 24.3356 30.7695 24.3291C30.8444 24.3226 30.9258 24.3128 31.0137 24.2998C30.9616 24.3291 30.9209 24.36 30.8916 24.3926C30.8623 24.4251 30.8395 24.4544 30.8232 24.4805C30.8037 24.513 30.7907 24.5423 30.7842 24.5684C30.7777 24.5944 30.7793 24.6481 30.7891 24.7295C30.7988 24.8109 30.8118 24.9053 30.8281 25.0127C30.8477 25.1201 30.8688 25.2324 30.8916 25.3496C30.9144 25.4668 30.9372 25.5742 30.96 25.6719C30.986 25.7695 31.0088 25.8509 31.0283 25.916C31.0511 25.9811 31.069 26.012 31.082 26.0088C31.0951 26.0088 31.1146 25.9762 31.1406 25.9111C31.1699 25.846 31.2025 25.7663 31.2383 25.6719C31.2741 25.5742 31.3115 25.4684 31.3506 25.3545C31.3896 25.2373 31.4238 25.1283 31.4531 25.0273C31.4824 24.9264 31.5052 24.8418 31.5215 24.7734C31.541 24.7018 31.5492 24.6595 31.5459 24.6465C31.5361 24.6335 31.5247 24.6156 31.5117 24.5928C31.4889 24.557 31.4385 24.4951 31.3604 24.4072C31.4548 24.4137 31.5361 24.4202 31.6045 24.4268C31.6729 24.43 31.7282 24.4349 31.7705 24.4414C31.8193 24.4479 31.8584 24.4528 31.8877 24.4561C31.917 24.4593 31.9593 24.4593 32.0146 24.4561C32.0602 24.4561 32.1204 24.4544 32.1953 24.4512C32.2734 24.4447 32.3695 24.4349 32.4834 24.4219C32.3988 24.4707 32.3288 24.5146 32.2734 24.5537C32.2214 24.5895 32.1807 24.6204 32.1514 24.6465C32.1156 24.679 32.0895 24.7067 32.0732 24.7295C32.0505 24.7718 32.0098 24.8727 31.9512 25.0322C31.9251 25.1006 31.8926 25.1852 31.8535 25.2861C31.8177 25.387 31.7738 25.5091 31.7217 25.6523C31.6729 25.7923 31.6143 25.9567 31.5459 26.1455C31.4775 26.3343 31.401 26.5508 31.3164 26.7949L30.8428 26.8438C30.7809 26.6387 30.7305 26.4678 30.6914 26.3311C30.6556 26.1911 30.6263 26.0788 30.6035 25.9941C30.5775 25.8965 30.5579 25.82 30.5449 25.7646C30.5286 25.7028 30.5091 25.6133 30.4863 25.4961C30.4635 25.3757 30.4408 25.2536 30.418 25.1299C30.3952 25.0062 30.3724 24.8955 30.3496 24.7979C30.3268 24.6969 30.3089 24.6351 30.2959 24.6123C30.2829 24.596 30.2601 24.5732 30.2275 24.5439C30.2015 24.5179 30.1657 24.487 30.1201 24.4512C30.0745 24.4121 30.016 24.3649 29.9443 24.3096ZM33.5039 26.2139C33.5951 26.2139 33.6797 26.2041 33.7578 26.1846C33.8229 26.1683 33.8848 26.1423 33.9434 26.1064C34.0052 26.0674 34.0459 26.0104 34.0654 25.9355C34.1305 25.9486 34.1859 25.96 34.2314 25.9697C34.277 25.9762 34.3161 25.9827 34.3486 25.9893C34.3844 25.999 34.4154 26.0055 34.4414 26.0088C34.4674 26.0153 34.4984 26.0218 34.5342 26.0283C34.5667 26.0348 34.6058 26.043 34.6514 26.0527C34.7002 26.0592 34.7572 26.069 34.8223 26.082C34.7734 26.0755 34.723 26.0804 34.6709 26.0967C34.6221 26.113 34.5749 26.1309 34.5293 26.1504C34.4772 26.1732 34.4284 26.2008 34.3828 26.2334C34.3535 26.2529 34.3193 26.2822 34.2803 26.3213C34.2445 26.3604 34.1924 26.3978 34.124 26.4336C34.0557 26.4694 33.9645 26.5003 33.8506 26.5264C33.7399 26.5492 33.5967 26.5573 33.4209 26.5508C33.2093 26.5443 33.0319 26.5068 32.8887 26.4385C32.7454 26.3669 32.6299 26.2806 32.542 26.1797C32.4541 26.0755 32.3906 25.9632 32.3516 25.8428C32.3125 25.7223 32.2913 25.61 32.2881 25.5059C32.2848 25.4017 32.3158 25.2926 32.3809 25.1787C32.446 25.0648 32.5371 24.9606 32.6543 24.8662C32.7747 24.7718 32.9196 24.6953 33.0889 24.6367C33.2581 24.5749 33.4437 24.5439 33.6455 24.5439C33.7627 24.5439 33.8701 24.5586 33.9678 24.5879C34.0687 24.6139 34.1598 24.6497 34.2412 24.6953C34.3258 24.7409 34.3991 24.793 34.4609 24.8516C34.5228 24.9069 34.5749 24.9639 34.6172 25.0225C34.6595 25.0843 34.6953 25.1494 34.7246 25.2178C34.7507 25.2764 34.7718 25.3431 34.7881 25.418C34.8044 25.4928 34.8092 25.5693 34.8027 25.6475C34.5553 25.654 34.3551 25.6589 34.2021 25.6621C34.0524 25.6654 33.9352 25.667 33.8506 25.667H33.6309H33.4648C33.4062 25.667 33.3298 25.6686 33.2354 25.6719C33.141 25.6751 33.0254 25.68 32.8887 25.6865C32.9049 25.8167 32.9456 25.9176 33.0107 25.9893C33.0791 26.0576 33.1507 26.1097 33.2256 26.1455C33.3102 26.1846 33.403 26.2074 33.5039 26.2139ZM33.0645 25.335C33.1686 25.3415 33.2549 25.3464 33.3232 25.3496C33.3949 25.3529 33.4535 25.3561 33.499 25.3594C33.5479 25.3626 33.5869 25.3643 33.6162 25.3643H33.7383C33.8197 25.3643 33.971 25.3594 34.1924 25.3496C34.1826 25.2064 34.1517 25.0973 34.0996 25.0225C34.0508 24.9476 33.9987 24.8923 33.9434 24.8564C33.8783 24.8174 33.8066 24.7946 33.7285 24.7881C33.5169 24.7913 33.359 24.8353 33.2549 24.9199C33.154 25.0046 33.0905 25.1429 33.0645 25.335ZM35.1104 27.1367C35.1429 27.0879 35.1689 27.0423 35.1885 27C35.208 26.9577 35.2243 26.9219 35.2373 26.8926C35.2503 26.8568 35.2601 26.8242 35.2666 26.7949C35.2699 26.7754 35.2715 26.7184 35.2715 26.624C35.2715 26.5296 35.2682 26.4108 35.2617 26.2676C35.2585 26.1243 35.2536 25.9632 35.2471 25.7842C35.2438 25.6051 35.2373 25.4229 35.2275 25.2373C35.221 25.0518 35.2129 24.8711 35.2031 24.6953C35.1966 24.5195 35.1901 24.3617 35.1836 24.2217C35.1771 24.0785 35.1706 23.9613 35.1641 23.8701C35.1576 23.779 35.1527 23.7269 35.1494 23.7139C35.1429 23.6943 35.1315 23.6748 35.1152 23.6553C35.0827 23.6162 35.0273 23.5788 34.9492 23.543C35.1152 23.5007 35.2422 23.4665 35.3301 23.4404C35.3822 23.4274 35.4277 23.4144 35.4668 23.4014C35.5026 23.3883 35.5384 23.3753 35.5742 23.3623C35.6035 23.3493 35.6361 23.3346 35.6719 23.3184C35.7077 23.2988 35.7402 23.2777 35.7695 23.2549C35.7533 23.3493 35.7402 23.4404 35.7305 23.5283C35.7207 23.6162 35.7126 23.6976 35.7061 23.7725C35.6995 23.8571 35.6963 23.9385 35.6963 24.0166C35.68 24.1761 35.6702 24.3503 35.667 24.5391C35.667 24.7246 35.6686 24.9134 35.6719 25.1055C35.6751 25.2975 35.6816 25.4847 35.6914 25.667C35.7012 25.8493 35.7109 26.0153 35.7207 26.165C35.7337 26.3115 35.7451 26.4368 35.7549 26.541C35.7679 26.6419 35.7777 26.707 35.7842 26.7363C35.7972 26.7852 35.8102 26.8324 35.8232 26.8779C35.8363 26.917 35.8509 26.9577 35.8672 27C35.8835 27.0456 35.903 27.0814 35.9258 27.1074H35.4521C35.4098 27.1074 35.3691 27.109 35.3301 27.1123C35.2943 27.1156 35.2568 27.1188 35.2178 27.1221C35.1787 27.1253 35.1429 27.1302 35.1104 27.1367ZM37.4102 24.8125C37.4948 24.8125 37.5827 24.8288 37.6738 24.8613C37.765 24.8906 37.8529 24.9297 37.9375 24.9785C38.0221 25.0241 38.0986 25.0745 38.167 25.1299C38.2386 25.182 38.2972 25.2324 38.3428 25.2812C38.4242 25.3691 38.4795 25.488 38.5088 25.6377C38.5413 25.7842 38.5479 25.9355 38.5283 26.0918C38.5088 26.2448 38.4632 26.3896 38.3916 26.5264C38.32 26.6631 38.2207 26.764 38.0938 26.8291C38.0026 26.8747 37.9131 26.9105 37.8252 26.9365C37.7373 26.9626 37.6527 26.9821 37.5713 26.9951C37.4899 27.0081 37.4134 27.0146 37.3418 27.0146C37.2702 27.0146 37.2083 27.013 37.1562 27.0098C37.0586 27.0033 36.9561 26.9691 36.8486 26.9072C36.7445 26.8454 36.6452 26.7689 36.5508 26.6777C36.4596 26.5866 36.3815 26.4873 36.3164 26.3799C36.2513 26.2692 36.2122 26.165 36.1992 26.0674C36.1797 25.9339 36.1764 25.7939 36.1895 25.6475C36.2025 25.501 36.2497 25.3659 36.3311 25.2422C36.4157 25.1185 36.5426 25.016 36.7119 24.9346C36.8844 24.8532 37.1172 24.8125 37.4102 24.8125ZM37.249 26.707C37.2848 26.7135 37.3337 26.7054 37.3955 26.6826C37.4574 26.6566 37.5176 26.6159 37.5762 26.5605C37.638 26.5052 37.6917 26.4352 37.7373 26.3506C37.7861 26.2627 37.8154 26.1569 37.8252 26.0332C37.835 25.9128 37.835 25.8021 37.8252 25.7012C37.8187 25.6003 37.804 25.5124 37.7812 25.4375C37.7585 25.3594 37.7324 25.2959 37.7031 25.2471C37.6738 25.1982 37.6429 25.1641 37.6104 25.1445C37.555 25.1152 37.4883 25.0924 37.4102 25.0762C37.332 25.0566 37.2653 25.0599 37.21 25.0859C37.1839 25.099 37.1514 25.1266 37.1123 25.1689C37.0732 25.2113 37.0342 25.265 36.9951 25.3301C36.9561 25.3919 36.9202 25.4635 36.8877 25.5449C36.8584 25.6263 36.8372 25.7109 36.8242 25.7988C36.8112 25.8867 36.8079 25.9811 36.8145 26.082C36.8242 26.1829 36.8454 26.279 36.8779 26.3701C36.9105 26.458 36.9561 26.5345 37.0146 26.5996C37.0765 26.6615 37.1546 26.6973 37.249 26.707ZM38.6162 24.7246C38.7204 24.7083 38.805 24.6953 38.8701 24.6855C38.9385 24.6725 38.9938 24.6628 39.0361 24.6562C39.085 24.6465 39.1224 24.6383 39.1484 24.6318C39.1745 24.6253 39.2119 24.6156 39.2607 24.6025C39.3031 24.5895 39.3584 24.5749 39.4268 24.5586C39.4951 24.5391 39.5814 24.513 39.6855 24.4805C39.6595 24.513 39.6383 24.5423 39.6221 24.5684C39.609 24.5911 39.596 24.6107 39.583 24.627C39.57 24.6465 39.5586 24.6644 39.5488 24.6807C39.5391 24.6969 39.5293 24.7214 39.5195 24.7539C39.513 24.7799 39.5049 24.8174 39.4951 24.8662C39.4854 24.9118 39.4772 24.972 39.4707 25.0469C39.6465 24.9362 39.8076 24.8532 39.9541 24.7979C40.1038 24.7425 40.234 24.7035 40.3447 24.6807C40.4749 24.6546 40.5921 24.6449 40.6963 24.6514C40.8265 24.6611 40.9469 24.6904 41.0576 24.7393C41.1715 24.7848 41.2741 24.8402 41.3652 24.9053C41.4564 24.9704 41.5361 25.042 41.6045 25.1201C41.6729 25.1982 41.7266 25.2764 41.7656 25.3545C41.7917 25.4066 41.8079 25.4814 41.8145 25.5791C41.8242 25.6768 41.8145 25.7809 41.7852 25.8916C41.7559 26.0023 41.7038 26.1113 41.6289 26.2188C41.5573 26.3229 41.4548 26.4059 41.3213 26.4678C41.0902 26.5719 40.8607 26.6305 40.6328 26.6436C40.5352 26.6501 40.4342 26.6468 40.3301 26.6338C40.2292 26.6208 40.1266 26.5931 40.0225 26.5508C39.9215 26.5085 39.8239 26.4482 39.7295 26.3701C39.6351 26.2887 39.5488 26.1846 39.4707 26.0576C39.4447 26.2236 39.4251 26.3685 39.4121 26.4922C39.4023 26.6126 39.3958 26.7135 39.3926 26.7949C39.3893 26.8893 39.3893 26.9691 39.3926 27.0342C39.3991 27.0993 39.4121 27.1693 39.4316 27.2441C39.4479 27.3092 39.4707 27.3841 39.5 27.4688C39.5326 27.5566 39.5732 27.6478 39.6221 27.7422C39.6025 27.7357 39.5749 27.7308 39.5391 27.7275C39.5065 27.7275 39.4723 27.7308 39.4365 27.7373C39.3975 27.7438 39.3535 27.7503 39.3047 27.7568C39.2591 27.7666 39.2087 27.778 39.1533 27.791C39.1077 27.8008 39.054 27.8122 38.9922 27.8252C38.9336 27.8415 38.8734 27.8594 38.8115 27.8789C38.8473 27.8366 38.875 27.7878 38.8945 27.7324C38.9173 27.6803 38.9352 27.6315 38.9482 27.5859C38.9613 27.5306 38.9727 27.4753 38.9824 27.4199C38.9857 27.3711 38.9906 27.2783 38.9971 27.1416C39.0068 27.0081 39.015 26.8535 39.0215 26.6777C39.028 26.4987 39.0329 26.3115 39.0361 26.1162C39.0426 25.9209 39.0459 25.7402 39.0459 25.5742C39.0492 25.4049 39.0492 25.2617 39.0459 25.1445C39.0426 25.0273 39.0361 24.959 39.0264 24.9395C39.0133 24.9167 38.9889 24.8923 38.9531 24.8662C38.9238 24.8434 38.8815 24.8206 38.8262 24.7979C38.7741 24.7751 38.7041 24.7507 38.6162 24.7246ZM39.7783 25.6133C39.7555 25.6882 39.7507 25.7614 39.7637 25.833C39.7767 25.9046 39.8092 25.9714 39.8613 26.0332C39.9167 26.0951 39.9932 26.1504 40.0908 26.1992C40.1917 26.2448 40.3171 26.279 40.4668 26.3018C40.6165 26.3245 40.7305 26.3213 40.8086 26.292C40.8867 26.2627 40.9437 26.2171 40.9795 26.1553C41.0186 26.0902 41.0446 26.0153 41.0576 25.9307C41.0706 25.8428 41.0869 25.7516 41.1064 25.6572C41.126 25.5661 41.1227 25.4733 41.0967 25.3789C41.0706 25.2812 41.0332 25.1934 40.9844 25.1152C40.9388 25.0371 40.8867 24.9736 40.8281 24.9248C40.7728 24.8727 40.724 24.8467 40.6816 24.8467C40.5807 24.8467 40.4814 24.8727 40.3838 24.9248C40.2861 24.9769 40.1966 25.042 40.1152 25.1201C40.0339 25.1982 39.9622 25.2829 39.9004 25.374C39.8418 25.4619 39.8011 25.5417 39.7783 25.6133ZM43.2842 26.2139C43.3753 26.2139 43.46 26.2041 43.5381 26.1846C43.6032 26.1683 43.665 26.1423 43.7236 26.1064C43.7855 26.0674 43.8262 26.0104 43.8457 25.9355C43.9108 25.9486 43.9661 25.96 44.0117 25.9697C44.0573 25.9762 44.0964 25.9827 44.1289 25.9893C44.1647 25.999 44.1956 26.0055 44.2217 26.0088C44.2477 26.0153 44.2786 26.0218 44.3145 26.0283C44.347 26.0348 44.3861 26.043 44.4316 26.0527C44.4805 26.0592 44.5374 26.069 44.6025 26.082C44.5537 26.0755 44.5033 26.0804 44.4512 26.0967C44.4023 26.113 44.3551 26.1309 44.3096 26.1504C44.2575 26.1732 44.2087 26.2008 44.1631 26.2334C44.1338 26.2529 44.0996 26.2822 44.0605 26.3213C44.0247 26.3604 43.9727 26.3978 43.9043 26.4336C43.8359 26.4694 43.7448 26.5003 43.6309 26.5264C43.5202 26.5492 43.377 26.5573 43.2012 26.5508C42.9896 26.5443 42.8122 26.5068 42.6689 26.4385C42.5257 26.3669 42.4102 26.2806 42.3223 26.1797C42.2344 26.0755 42.1709 25.9632 42.1318 25.8428C42.0928 25.7223 42.0716 25.61 42.0684 25.5059C42.0651 25.4017 42.096 25.2926 42.1611 25.1787C42.2262 25.0648 42.3174 24.9606 42.4346 24.8662C42.555 24.7718 42.6999 24.6953 42.8691 24.6367C43.0384 24.5749 43.224 24.5439 43.4258 24.5439C43.543 24.5439 43.6504 24.5586 43.748 24.5879C43.849 24.6139 43.9401 24.6497 44.0215 24.6953C44.1061 24.7409 44.1794 24.793 44.2412 24.8516C44.3031 24.9069 44.3551 24.9639 44.3975 25.0225C44.4398 25.0843 44.4756 25.1494 44.5049 25.2178C44.5309 25.2764 44.5521 25.3431 44.5684 25.418C44.5846 25.4928 44.5895 25.5693 44.583 25.6475C44.3356 25.654 44.1354 25.6589 43.9824 25.6621C43.8327 25.6654 43.7155 25.667 43.6309 25.667H43.4111H43.2451C43.1865 25.667 43.11 25.6686 43.0156 25.6719C42.9212 25.6751 42.8057 25.68 42.6689 25.6865C42.6852 25.8167 42.7259 25.9176 42.791 25.9893C42.8594 26.0576 42.931 26.1097 43.0059 26.1455C43.0905 26.1846 43.1833 26.2074 43.2842 26.2139ZM42.8447 25.335C42.9489 25.3415 43.0352 25.3464 43.1035 25.3496C43.1751 25.3529 43.2337 25.3561 43.2793 25.3594C43.3281 25.3626 43.3672 25.3643 43.3965 25.3643H43.5186C43.5999 25.3643 43.7513 25.3594 43.9727 25.3496C43.9629 25.2064 43.932 25.0973 43.8799 25.0225C43.8311 24.9476 43.779 24.8923 43.7236 24.8564C43.6585 24.8174 43.5869 24.7946 43.5088 24.7881C43.2972 24.7913 43.1393 24.8353 43.0352 24.9199C42.9342 25.0046 42.8708 25.1429 42.8447 25.335ZM44.7295 24.6611C44.7913 24.6644 44.8467 24.666 44.8955 24.666C44.9476 24.6628 44.9915 24.6595 45.0273 24.6562C45.0697 24.653 45.1071 24.6497 45.1396 24.6465C45.1885 24.64 45.2389 24.6318 45.291 24.6221C45.3366 24.6156 45.3838 24.6074 45.4326 24.5977C45.4847 24.5846 45.5352 24.57 45.584 24.5537C45.5645 24.6025 45.5482 24.6449 45.5352 24.6807C45.5221 24.7165 45.5124 24.7474 45.5059 24.7734C45.4961 24.8027 45.4912 24.8271 45.4912 24.8467C45.488 24.8695 45.4863 24.8971 45.4863 24.9297C45.4831 24.985 45.4831 25.0745 45.4863 25.1982C45.6556 25.0518 45.7972 24.9378 45.9111 24.8564C46.0283 24.7751 46.1211 24.7116 46.1895 24.666C46.2708 24.6139 46.3343 24.5798 46.3799 24.5635C46.5003 24.5439 46.6061 24.5716 46.6973 24.6465C46.7363 24.679 46.7738 24.723 46.8096 24.7783C46.8454 24.8304 46.8763 24.9004 46.9023 24.9883C46.9284 25.0762 46.9479 25.182 46.9609 25.3057C46.974 25.4261 46.9756 25.571 46.9658 25.7402C46.8975 25.7467 46.8356 25.7533 46.7803 25.7598C46.7282 25.7663 46.6842 25.7712 46.6484 25.7744C46.6061 25.7809 46.5671 25.7842 46.5312 25.7842L46.3994 25.7988C46.3538 25.8053 46.2969 25.8118 46.2285 25.8184C46.1634 25.8216 46.0837 25.8281 45.9893 25.8379C46.126 25.7272 46.2139 25.6312 46.2529 25.5498C46.2952 25.4652 46.3132 25.3952 46.3066 25.3398C46.3001 25.278 46.2708 25.2243 46.2188 25.1787C46.1569 25.1429 46.0902 25.1299 46.0186 25.1396C45.9567 25.1462 45.8851 25.1738 45.8037 25.2227C45.7223 25.2715 45.6361 25.3626 45.5449 25.4961C45.5514 25.7044 45.5579 25.877 45.5645 26.0137C45.5742 26.1504 45.5824 26.2611 45.5889 26.3457C45.5986 26.4434 45.6068 26.5199 45.6133 26.5752C45.623 26.624 45.6426 26.6761 45.6719 26.7314C45.6947 26.777 45.7272 26.8275 45.7695 26.8828C45.8118 26.9382 45.8672 26.9935 45.9355 27.0488C45.7923 27.0423 45.6751 27.0423 45.584 27.0488C45.5286 27.0521 45.4798 27.0553 45.4375 27.0586C45.3919 27.0651 45.3431 27.0716 45.291 27.0781C45.2454 27.0846 45.1917 27.0911 45.1299 27.0977C45.0713 27.1074 45.0062 27.1172 44.9346 27.127C44.9606 27.0911 44.9818 27.0488 44.998 27C45.0143 26.9544 45.0273 26.9105 45.0371 26.8682C45.0501 26.8193 45.0599 26.7689 45.0664 26.7168C45.0697 26.6712 45.0713 26.6029 45.0713 26.5117C45.0745 26.4206 45.0729 26.318 45.0664 26.2041C45.0632 26.0869 45.0583 25.9665 45.0518 25.8428C45.0452 25.7158 45.0371 25.597 45.0273 25.4863C45.0176 25.3757 45.0062 25.2796 44.9932 25.1982C44.9834 25.1136 44.972 25.055 44.959 25.0225C44.9427 24.9834 44.9232 24.9443 44.9004 24.9053C44.8809 24.8695 44.8564 24.832 44.8271 24.793C44.7979 24.7507 44.7653 24.7067 44.7295 24.6611Z" fill="white"/>
</svg>
