<?xml version="1.0" encoding="UTF-8" standalone="no"?>
<svg xmlns="http://www.w3.org/2000/svg" version="1.0" width="512.000000pt" height="512.000000pt" viewBox="0 0 512.000000 512.000000" preserveAspectRatio="xMidYMid meet">
  <g transform="translate(0.000000,512.000000) scale(0.100000,-0.100000)" fill="#ff6d41" stroke="none">
    <path d="M263 5101 c-104 -38 -180 -107 -231 -211 l-27 -55 0 -1795 0 -1795 29 -60 c38 -77 114 -153 191 -191 l60 -29 643 -3 c353 -1 642 -6 642 -10 0 -4 -4 -23 -9 -42 -6 -19 -15 -54 -20 -76 -9 -32 -17 -43 -36 -48 -37 -9 -105 -75 -126 -121 -15 -32 -19 -66 -19 -172 0 -120 2 -135 20 -153 19 -19 33 -20 440 -20 l420 0 0 80 0 80 -360 0 -360 0 0 34 c0 18 5 48 11 66 20 57 41 60 394 60 l315 0 0 80 0 80 -266 0 c-248 0 -265 1 -260 18 3 9 10 37 16 62 6 25 13 53 16 63 5 16 26 17 250 17 l244 0 0 80 0 79 -942 3 c-935 3 -943 3 -988 24 -58 27 -98 67 -123 124 -17 36 -21 72 -25 188 l-5 142 1042 0 1041 0 0 80 0 80 -1040 0 -1040 0 2 1503 3 1502 21 45 c48 103 114 139 265 147 l109 6 0 78 0 79 -122 0 c-94 -1 -135 -5 -175 -19z"></path>
    <path d="M720 5040 l0 -80 85 0 85 0 0 80 0 80 -85 0 -85 0 0 -80z"></path>
    <path d="M1040 5040 l0 -80 1868 -2 1867 -3 40 -21 c55 -30 94 -70 119 -124 l21 -45 0 -1720 c0 -1431 -2 -1727 -14 -1759 -16 -45 -72 -111 -113 -132 l-28 -14 -2 1287 -3 1288 -29 60 c-38 77 -114 153 -191 191 l-60 29 -915 0 -915 0 -60 -29 c-77 -38 -153 -114 -191 -191 l-29 -60 0 -1715 0 -1715 29 -60 c38 -77 114 -153 191 -191 l60 -29 915 0 915 0 60 29 c77 38 153 114 191 191 l29 60 5 339 5 339 42 12 c98 29 190 111 241 215 l27 55 0 1795 0 1795 -29 60 c-38 77 -114 153 -191 191 l-60 29 -1897 3 -1898 2 0 -80z m3455 -1226 c76 -41 134 -121 135 -186 l0 -28 -255 0 c-292 0 -288 1 -300 -87 -10 -76 -32 -129 -61 -142 -31 -14 -790 -16 -827 -2 -28 11 -52 67 -62 144 -12 88 -8 87 -300 87 l-255 0 0 28 c1 88 93 185 195 203 22 4 411 6 865 5 824 -1 825 -1 865 -22z m-1514 -439 c10 -35 33 -78 53 -102 65 -75 48 -73 566 -73 518 0 501 -2 566 73 20 24 43 67 53 102 l19 60 201 3 201 2 0 -1400 0 -1400 -1040 0 -1040 0 0 1400 0 1400 201 -2 201 -3 19 -60z m1655 -2962 c-9 -86 -33 -139 -83 -184 -74 -67 -32 -64 -958 -64 -833 0 -840 0 -885 21 -90 42 -134 111 -146 227 l-7 67 1043 0 1043 0 -7 -67z"></path>
    <path d="M3280 3600 l0 -80 320 0 320 0 0 80 0 80 -320 0 -320 0 0 -80z"></path>
    <path d="M3415 2866 c-331 -77 -575 -308 -671 -636 -15 -53 -19 -97 -19 -235 1 -159 3 -176 29 -255 104 -316 350 -540 662 -605 95 -20 274 -19 372 1 331 68 608 345 676 676 21 101 21 288 0 379 -71 314 -293 554 -604 654 -74 24 -104 28 -235 31 -103 3 -169 -1 -210 -10z m417 -193 c206 -71 371 -239 446 -452 24 -69 27 -89 27 -221 0 -132 -3 -152 -27 -221 -105 -298 -368 -489 -673 -489 -149 0 -265 33 -384 108 -344 216 -436 677 -203 1014 43 62 147 158 217 200 175 106 400 129 597 61z"></path>
    <path d="M3658 2343 l-217 -217 -60 57 c-53 51 -64 57 -102 57 -42 0 -47 -4 -181 -138 -136 -136 -138 -138 -138 -182 l0 -44 218 -218 218 -218 44 0 45 0 377 378 378 377 0 45 c0 44 -2 46 -138 182 -195 195 -163 201 -444 -79z m322 -48 l55 -55 -298 -298 -297 -297 -137 138 -138 137 57 57 57 57 60 -57 c53 -51 64 -57 102 -57 43 0 45 2 259 215 118 118 217 215 220 215 3 0 30 -25 60 -55z"></path>
    <path d="M3280 320 l0 -80 320 0 320 0 0 80 0 80 -320 0 -320 0 0 -80z"></path>
    <path d="M1064 4786 c-15 -12 -20 -30 -24 -96 l-5 -81 -63 -26 -63 -25 -54 51 c-85 81 -91 79 -257 -87 -166 -166 -168 -172 -87 -257 l51 -54 -25 -63 -26 -63 -81 -5 c-66 -4 -84 -9 -96 -24 -20 -29 -20 -403 0 -432 12 -15 30 -20 96 -24 l81 -5 26 -63 25 -63 -51 -54 c-81 -85 -79 -91 87 -257 166 -166 172 -168 257 -87 l54 51 63 -25 63 -26 5 -81 c4 -66 9 -84 24 -96 29 -20 403 -20 432 0 15 12 20 30 24 96 l5 81 63 26 63 25 54 -51 c85 -81 91 -79 257 87 166 166 168 172 87 257 l-51 54 25 63 26 63 81 5 c66 4 84 9 96 24 20 29 20 403 0 432 -12 15 -30 20 -96 24 l-81 5 -26 63 -25 63 51 54 c81 85 79 91 -87 257 -166 166 -172 168 -257 87 l-54 -51 -63 25 -63 26 -5 81 c-4 66 -9 84 -24 96 -29 20 -403 20 -432 0z m296 -212 c0 -36 5 -74 10 -84 6 -12 34 -26 68 -36 31 -9 94 -34 139 -56 95 -46 108 -45 171 15 l42 41 52 -52 52 -52 -41 -42 c-60 -63 -61 -76 -15 -171 22 -45 47 -108 56 -139 10 -34 24 -62 36 -68 10 -5 48 -10 84 -10 l66 0 0 -80 0 -80 -66 0 c-36 0 -74 -5 -84 -10 -12 -6 -26 -34 -36 -68 -9 -31 -34 -94 -56 -139 -46 -95 -45 -108 15 -171 l41 -42 -52 -52 -52 -52 -42 41 c-63 60 -76 61 -171 15 -45 -22 -108 -47 -139 -56 -34 -10 -62 -24 -68 -36 -5 -10 -10 -48 -10 -84 l0 -66 -80 0 -80 0 0 66 c0 36 -5 74 -10 84 -6 12 -34 26 -68 36 -31 9 -94 34 -139 56 -95 46 -108 45 -171 -15 l-42 -41 -52 52 -52 52 41 42 c60 63 61 76 15 171 -22 45 -47 108 -56 139 -10 34 -24 62 -36 68 -10 5 -48 10 -84 10 l-66 0 0 80 0 80 66 0 c36 0 74 5 84 10 12 6 26 34 36 68 9 31 34 94 56 139 46 95 45 108 -15 171 l-41 42 52 52 52 52 42 -41 c63 -60 75 -61 173 -14 47 22 105 46 129 52 72 18 86 38 86 119 l0 70 80 0 80 0 0 -66z"></path>
    <path d="M1153 4226 c-101 -33 -190 -113 -241 -216 -25 -50 -27 -65 -27 -170 0 -107 2 -119 29 -175 38 -77 114 -153 191 -191 56 -27 68 -29 175 -29 107 0 119 2 175 29 77 38 153 114 191 191 27 56 29 68 29 175 0 107 -2 119 -29 175 -38 77 -114 153 -191 190 -52 26 -72 30 -160 32 -64 2 -115 -2 -142 -11z m225 -175 c147 -75 178 -267 61 -378 -146 -138 -388 -36 -389 165 0 93 51 174 135 213 54 25 144 25 193 0z"></path>
    <path d="M3360 4720 l0 -80 520 0 520 0 0 80 0 80 -520 0 -520 0 0 -80z"></path>
    <path d="M4560 4720 l0 -80 80 0 80 0 0 80 0 80 -80 0 -80 0 0 -80z"></path>
    <path d="M1944 2946 c-15 -12 -20 -30 -24 -96 l-5 -81 -63 -26 -63 -25 -54 51 c-85 81 -91 79 -257 -87 -166 -166 -168 -172 -87 -257 l51 -54 -25 -63 -26 -63 -81 -5 c-113 -7 -110 -2 -110 -222 l0 -178 80 0 80 0 0 120 0 120 66 0 c36 0 74 5 84 10 12 6 26 34 36 68 9 31 34 94 56 139 46 95 45 108 -15 171 l-41 42 52 52 52 52 42 -41 c63 -60 75 -61 173 -14 47 22 105 46 129 52 72 18 86 38 86 119 l0 70 120 0 120 0 0 80 0 80 -178 0 c-138 0 -183 -3 -198 -14z"></path>
    <path d="M2023 2381 c-142 -52 -248 -181 -260 -320 l-6 -61 87 0 86 0 0 28 c1 89 112 202 200 202 l30 0 0 85 0 85 -42 0 c-24 -1 -66 -9 -95 -19z"></path>
    <path d="M320 1360 l0 -80 80 0 80 0 0 80 0 80 -80 0 -80 0 0 -80z"></path>
    <path d="M640 1360 l0 -80 240 0 240 0 0 80 0 80 -240 0 -240 0 0 -80z"></path>
  </g>
</svg>
