<?xml version="1.0" encoding="UTF-8"?> <svg xmlns="http://www.w3.org/2000/svg" height="512px" viewBox="-20 -20 661.33331 661.33331" width="512px" class=""> <g transform="matrix(0.842943, 0, 0, 0.842943, 65.6511, 48.7923)"> <path d="m10 270h30.191406c2.121094 6 4.582032 11.875 7.367188 17.597656l-21.429688 21.402344c-3.902344 3.90625-3.902344 10.234375 0 14.140625l70.703125 70.695313c3.964844 3.757812 10.167969 3.757812 14.140625 0l21.429688-21.421876c5.71875 2.796876 11.597656 5.261719 17.597656 7.386719v30.199219c0 5.523438 4.476562 10 10 10h100c5.523438 0 10-4.476562 10-10v-30.199219c6-2.113281 11.878906-4.570312 17.597656-7.359375l21.402344 21.429688c3.90625 3.902344 10.234375 3.902344 14.140625 0l70.695313-70.703125c3.90625-3.90625 3.90625-10.234375 0-14.140625l-21.394532-21.429688c2.785156-5.722656 5.246094-11.597656 7.367188-17.597656h30.191406c5.523438 0 10-4.476562 10-10v-100c0-5.523438-4.476562-10-10-10h-30.191406c-2.121094-6-4.582032-11.875-7.367188-17.597656l21.429688-21.402344c3.902344-3.90625 3.902344-10.234375 0-14.140625l-70.703125-70.695313c-3.964844-3.757812-10.167969-3.757812-14.140625 0l-21.429688 21.394532c-5.71875-2.789063-11.597656-5.246094-17.597656-7.359375v-30.199219c0-5.523438-4.476562-10-10-10h-100c-5.523438 0-10 4.476562-10 10v30.199219c-6 2.113281-11.878906 4.570312-17.597656 7.359375l-21.402344-21.429688c-3.90625-3.902344-10.234375-3.902344-14.140625 0l-70.695313 70.703125c-3.90625 3.90625-3.90625 10.234375 0 14.140625l21.394532 21.429688c-2.785156 5.722656-5.246094 11.597656-7.367188 17.597656h-30.191406c-5.523438 0-10 4.476562-10 10v100c0 5.523438 4.476562 10 10 10zm10-100h27.402344c4.371094.003906 8.238281-2.832031 9.546875-7 2.941406-9.597656 6.835937-18.878906 11.621093-27.703125 2.132813-3.890625 1.4375-8.726563-1.699218-11.867187l-19.53125-19.527344 56.5625-56.5625 19.527344 19.539062c3.140624 3.140625 7.984374 3.828125 11.878906 1.691406 8.824218-4.773437 18.097656-8.648437 27.691406-11.570312 4.1875-1.316406 7.023438-5.210938 7-9.597656v-27.402344h80v27.402344c-.003906 4.371094 2.832031 8.238281 7 9.546875 9.582031 2.9375 18.84375 6.835937 27.648438 11.621093 3.898437 2.136719 8.734374 1.449219 11.878906-1.691406l19.570312-19.539062 56.5625 56.5625-19.53125 19.527344c-3.136718 3.140624-3.832031 7.976562-1.699218 11.867187 4.785156 8.824219 8.679687 18.105469 11.621093 27.703125 1.308594 4.167969 5.175781 7.003906 9.546875 7h27.402344v80h-27.402344c-4.371094-.003906-8.238281 2.832031-9.546875 7-2.941406 9.585938-6.835937 18.855469-11.621093 27.667969-2.132813 3.894531-1.4375 8.730469 1.699218 11.871093l19.53125 19.53125-56.5625 56.589844-19.527344-19.539062c-3.140624-3.140625-7.984374-3.828125-11.878906-1.691406-8.816406 4.789062-18.09375 8.683593-27.691406 11.621093-4.167969 1.308594-7.003906 5.175781-7 9.546875v27.402344h-80v-27.402344c.003906-4.371094-2.832031-8.238281-7-9.546875-9.582031-2.9375-18.84375-6.835937-27.648438-11.621093-3.898437-2.136719-8.734374-1.449219-11.878906 1.691406l-19.570312 19.539062-56.5625-56.5625 19.53125-19.527344c3.136718-3.140624 3.832031-7.976562 1.699218-11.867187-4.773437-8.828125-8.644531-18.105469-11.570312-27.703125-1.316406-4.1875-5.210938-7.023438-9.597656-7h-27.402344zm0 0" data-original="#000000" class="active-path" data-old_color="#000000" fill="#E26E0E"></path> <path d="m210 320c60.75 0 110-49.25 110-110s-49.25-110-110-110-110 49.25-110 110c.074219 60.722656 49.277344 109.925781 110 110zm0-200c49.707031 0 90 40.292969 90 90s-40.292969 90-90 90-90-40.292969-90-90c.054688-49.683594 40.316406-89.945312 90-90zm0 0" data-original="#000000" class="active-path" data-old_color="#000000" fill="#E26E0E"></path> <path d="m210 290c44.183594 0 80-35.816406 80-80s-35.816406-80-80-80-80 35.816406-80 80c.046875 44.160156 35.839844 79.953125 80 80zm0-140c33.132812 0 60 26.867188 60 60s-26.867188 60-60 60-60-26.867188-60-60c.035156-33.125 26.875-59.964844 60-60zm0 0" data-original="#000000" class="active-path" data-old_color="#000000" fill="#E26E0E"></path> <path d="m380 240c5.523438 0 10-4.476562 10-10v-40c0-5.523438-4.476562-10-10-10s-10 4.476562-10 10v40c0 5.523438 4.476562 10 10 10zm0 0" data-original="#000000" class="active-path" data-old_color="#000000" fill="#E26E0E"></path> <path d="m50 190c0-5.523438-4.476562-10-10-10s-10 4.476562-10 10v10c0 5.523438 4.476562 10 10 10s10-4.476562 10-10zm0 0" data-original="#000000" class="active-path" data-old_color="#000000" fill="#E26E0E"></path> <path d="m327.929688 112.070312c3.925781 3.789063 10.160156 3.734376 14.019531-.121093 3.855469-3.859375 3.910156-10.09375.121093-14.019531l-25-25c-3.925781-3.789063-10.160156-3.734376-14.019531.121093-3.855469 3.859375-3.910156 10.09375-.121093 14.019531zm0 0" data-original="#000000" class="active-path" data-old_color="#000000" fill="#E26E0E"></path> <path d="m210 60h10c5.523438 0 10-4.476562 10-10s-4.476562-10-10-10h-10c-5.523438 0-10 4.476562-10 10s4.476562 10 10 10zm0 0" data-original="#000000" class="active-path" data-old_color="#000000" fill="#E26E0E"></path> <path d="m210 370h-20c-5.523438 0-10 4.476562-10 10s4.476562 10 10 10h20c5.523438 0 10-4.476562 10-10s-4.476562-10-10-10zm0 0" data-original="#000000" class="active-path" data-old_color="#000000" fill="#E26E0E"></path> <path d="m80 120c2.652344 0 5.195312-1.054688 7.070312-2.929688l10-10c3.789063-3.925781 3.734376-10.160156-.121093-14.019531-3.859375-3.855469-10.09375-3.910156-14.019531-.121093l-10 10c-2.855469 2.859374-3.714844 7.164062-2.167969 10.898437s5.195312 6.171875 9.238281 6.171875zm0 0" data-original="#000000" class="active-path" data-old_color="#000000" fill="#E26E0E"></path> <path d="m332.929688 312.929688-10 10c-2.597657 2.507812-3.640626 6.230468-2.726563 9.726562s3.644531 6.226562 7.140625 7.140625 7.21875-.128906 9.726562-2.726563l10-10c3.789063-3.925781 3.734376-10.160156-.121093-14.019531-3.859375-3.855469-10.09375-3.910156-14.019531-.121093zm0 0" data-original="#000000" class="active-path" data-old_color="#000000" fill="#E26E0E"></path> <path d="m92.929688 337.070312c3.925781 3.789063 10.160156 3.734376 14.019531-.121093 3.855469-3.859375 3.910156-10.09375.121093-14.019531l-20-20c-3.925781-3.789063-10.160156-3.734376-14.019531.121093-3.855469 3.859375-3.910156 10.09375-.121093 14.019531zm0 0" data-original="#000000" class="active-path" data-old_color="#000000" fill="#E26E0E"></path> <path d="m610 570h-60v-223.820312c13.335938-14.90625 13.335938-37.453126 0-52.359376v-53.820312c0-5.523438-4.476562-10-10-10h-40c-5.523438 0-10 4.476562-10 10v53.820312c-13.335938 14.90625-13.335938 37.453126 0 52.359376v223.820312h-40v-123.820312c13.335938-14.90625 13.335938-37.453126 0-52.359376v-43.820312c0-5.523438-4.476562-10-10-10h-40c-5.523438 0-10 4.476562-10 10v43.820312c-13.335938 14.90625-13.335938 37.453126 0 52.359376v123.820312h-50v-63.820312c13.335938-14.90625 13.335938-37.453126 0-52.359376v-33.820312c0-5.523438-4.476562-10-10-10h-40c-5.523438 0-10 4.476562-10 10v33.820312c-13.335938 14.90625-13.335938 37.453126 0 52.359376v63.820312h-50v-33.820312c13.335938-14.90625 13.335938-37.453126 0-52.359376v-33.820312c0-5.523438-4.476562-10-10-10h-40c-5.523438 0-10 4.476562-10 10v33.820312c-13.335938 14.90625-13.335938 37.453126 0 52.359376v33.820312h-40v-53.820312c13.335938-14.90625 13.335938-37.453126 0-52.359376v-33.820312c0-5.523438-4.476562-10-10-10h-40c-5.523438 0-10 4.476562-10 10v33.820312c-13.335938 14.90625-13.335938 37.453126 0 52.359376v53.820312h-60c-5.523438 0-10 4.476562-10 10v30c0 5.523438 4.476562 10 10 10h600c5.523438 0 10-4.476562 10-10v-30c0-5.523438-4.476562-10-10-10zm-110-250c0-11.046875 8.953125-20 20-20s20 8.953125 20 20-8.953125 20-20 20-20-8.953125-20-20zm30-70v31.421875c-6.53125-1.894531-13.46875-1.894531-20 0v-31.421875zm-20 108.578125c6.53125 1.894531 13.46875 1.894531 20 0v211.421875h-20zm-110 61.421875c0-11.046875 8.953125-20 20-20s20 8.953125 20 20-8.953125 20-20 20-20-8.953125-20-20zm30-60v21.421875c-6.53125-1.894531-13.46875-1.894531-20 0v-21.421875zm-20 98.578125c6.53125 1.894531 13.46875 1.894531 20 0v111.421875h-20zm-120 21.421875c0-11.046875 8.953125-20 20-20s20 8.953125 20 20-8.953125 20-20 20-20-8.953125-20-20zm30-50v11.421875c-6.53125-1.894531-13.46875-1.894531-20 0v-11.421875zm-20 88.578125c6.53125 1.894531 13.46875 1.894531 20 0v51.421875h-20zm-120-8.578125c0-11.046875 8.953125-20 20-20s20 8.953125 20 20-8.953125 20-20 20-20-8.953125-20-20zm30-50v11.421875c-6.53125-1.894531-13.46875-1.894531-20 0v-11.421875zm-20 88.578125c6.53125 1.894531 13.46875 1.894531 20 0v21.421875h-20zm-110-58.578125c0-11.046875 8.953125-20 20-20s20 8.953125 20 20-8.953125 20-20 20-20-8.953125-20-20zm30-50v11.421875c-6.53125-1.894531-13.46875-1.894531-20 0v-11.421875zm-20 88.578125c6.53125 1.894531 13.46875 1.894531 20 0v41.421875h-20zm510 71.421875h-580v-10h580zm0 0" data-original="#000000" class="active-path" data-old_color="#000000" fill="#E26E0E"></path> </g> </svg> 