<svg width="40" height="40" viewBox="0 0 40 40" fill="none" xmlns="http://www.w3.org/2000/svg">
<path d="M35.5556 0H4.44444C3.26571 0 2.13524 0.468244 1.30176 1.30176C0.468244 2.13524 0 3.26571 0 4.44444V35.5556C0 36.7342 0.468244 37.8647 1.30176 38.6982C2.13524 39.5318 3.26571 40 4.44444 40H35.5556C36.7342 40 37.8647 39.5318 38.6982 38.6982C39.5318 37.8647 40 36.7342 40 35.5556V4.44444C40 3.26571 39.5318 2.13524 38.6982 1.30176C37.8647 0.468244 36.7342 0 35.5556 0ZM35.5556 35.5556H4.44444V4.44444H35.5556V35.5556ZM31.1111 12L23.1111 20L31.1111 28L28 31.1111L20 23.1111L12 31.1111L8.88889 28L16.8889 20L8.88889 12L12 8.88889L20 16.8889L28 8.88889L31.1111 12Z" fill="black"/>
</svg>
